<?xml version="1.0" encoding="UTF-8"?>
<!DOCTYPE svg PUBLIC "-//W3C//DTD SVG 1.1//EN" "http://www.w3.org/Graphics/SVG/1.1/DTD/svg11.dtd">
<!-- Creator: CorelDRAW 2020 (64 Bit) -->
<svg xmlns="http://www.w3.org/2000/svg" xml:space="preserve" width="189.607mm" height="106.176mm" version="1.1" style="shape-rendering:geometricPrecision; text-rendering:geometricPrecision; image-rendering:optimizeQuality; fill-rule:evenodd; clip-rule:evenodd"
viewBox="0 0 19550.92 10948.11"
 xmlns:xlink="http://www.w3.org/1999/xlink"
 xmlns:xodm="http://www.corel.com/coreldraw/odm/2003">
 <defs>
  <style type="text/css">
   <![CDATA[
    .fil1 {fill:#4400C3}
    .fil0 {fill:#FF9500}
   ]]>
  </style>
 </defs>
 <g id="Camada_x0020_1">
  <metadata id="CorelCorpID_0Corel-Layer"/>
  <g id="_1684873385792">
   <path class="fil0" d="M2285.49 8070.99c0,253.74 32.24,598.79 80.67,806.67 -303.14,25.23 -366.62,79.02 -678.79,6.58 -218.46,-50.68 -385.23,-135.5 -531.86,-247.91 -708.88,-543.52 -752.36,-1548.77 -155.01,-2146.11 347.61,-347.61 661.9,-409.01 1123.66,-409.01 221.6,0 362.69,93.66 537.79,134.45 -9.59,115.27 -95.77,298.03 -134.47,403.32 -145.41,395.64 -241.99,1003.93 -241.99,1452.02zm9169.15 -322.66c0,-517.74 -250.27,-1334.92 -483.57,-1775.1 -40.87,-77.11 -85.76,-119.28 -107.98,-214.69l-7367.58 0.01c-249.22,0.06 -328.31,14.47 -514.68,-49.99 -654.05,-226.18 -1187.87,-347.45 -1842.96,-22.09 -230.42,114.43 -381.5,216.31 -553.14,387.97 -168.51,168.53 -285.31,317.82 -389.47,551.64 -574.75,1290.34 194.74,2567.48 1326.24,2827.36 250.99,57.65 765.59,91.34 979.11,-11.12 86.78,372.49 382.27,895.2 602.34,1226.12 81.67,122.8 149.58,279.66 338.79,279.66l6883.57 0c196.24,0 343.99,-263.85 458.99,-455.24 380.75,-633.67 670.35,-1398.1 670.35,-2152.98 644.3,-14.35 1325.8,-594.73 1594.67,-1228.69 336.96,-794.5 -22.1,-1659.41 273.98,-1850.23 162.08,-104.47 443.8,-10.09 443.8,-362.88 0,-331.03 -451.94,-352.64 -815.19,-89.19 -127.47,92.44 -214.61,209.89 -276.8,368.54 -223.19,569.34 199.01,1441.93 -420.15,2107.41 -223.72,240.47 -431.5,377.55 -800.31,463.47z"/>
   <path class="fil1" d="M10486.63 165.63c-106.21,71.14 -353.09,395.72 -430.22,510.89l1203.52 1243.38c93.82,92.77 134.26,163.15 228.09,255.92 87.56,86.58 155.03,154.57 242.23,241.77 83.38,83.38 203.15,155.3 235.27,275.61 -167.06,38.93 -275.2,116.51 -437.85,180.58 -161.17,63.49 -297.19,119.34 -457.03,188.32 -153.83,66.37 -307.5,126.75 -449.56,195.77l-2020.77 856.35c-101.77,39.99 -157.14,37.49 -184.13,138.54 121.48,10.11 273.93,59.17 383.49,73.62l1364.49 87.54c357.31,-1.4 460.75,19.2 887.81,-26.07 237.9,-25.21 2022.35,-788.91 2415.18,-945.94l1037.45 -414.56c236.98,-94.77 438.24,-174.32 668.17,-272.93l2062.99 -841.02c384.57,-153.94 1399.11,-533.14 1689.2,-730.81 84.49,-57.58 195.13,-145.39 267.57,-216.43 188.68,-185.06 585.97,-684.64 186.9,-873.75 -324.95,-154 -854.72,-92.09 -1152.55,15.66l-1486.62 610.72c-241.22,96.47 -1907.08,803.6 -2001.15,801.99l-1055.93 -330.14c-355.5,-108.45 -696.99,-226.11 -1055.24,-343 -189.57,-61.85 -358.04,-109.53 -531.58,-167.54l-387.13 -123.75c-65.49,-22.02 -64.21,-28.21 -137.21,-51.02 -197.79,-61.84 -339.78,-104.53 -530.88,-168.24 -194.76,-64.94 -353.97,-124.76 -554.52,-171.49z"/>
   <path class="fil0" d="M4060.17 1321.86c0,-881.25 1240.97,-718.8 1100.2,76.51 -113.24,639.81 -1100.2,552.24 -1100.2,-76.51zm-591.56 -80.67c0,286.55 31.83,453.64 171.56,662 90.03,134.21 231.17,316.55 393.11,359.79l-558.18 517.37c-165.85,163.97 -344.99,412.35 -479.15,596.42 -212.52,291.6 -649.25,1161.32 -656.68,1494.44 92.12,-21.46 121.02,-50.96 207.41,-88.36 84.52,-36.61 124.03,-49.59 205.04,-90.75l2832.28 -1308.62c74.12,-34.35 130.26,-66.42 196.66,-99.12l403.34 -188.22c676.59,-333.33 1536.84,-684.11 2223.01,-1030.54l412.5 -232.84c-88.23,-20.55 -239.3,-97.28 -322.89,-134.22 -668.57,-295.5 -1585,-373.98 -2334.47,-292.06 -128.7,14.06 -275.36,65.68 -407.99,76.73 0,-115.12 28.9,-148.53 16.81,-257.06 -97.63,-876.22 -865.56,-1258.58 -1506.78,-1044.7 -436.9,145.74 -795.59,536.11 -795.59,1059.75z"/>
   <path class="fil1" d="M7340.63 3042.75c123.37,184.25 871.44,807.78 914.22,968 130.45,-2.91 501.15,-185.2 645.33,-242 120.13,-47.32 197.92,-92.04 314.89,-142.22 116.16,-49.83 209.33,-98.45 330.45,-126.67l0 -53.77c-97.65,-8.13 -857.57,-325.86 -950.1,-367.45 -84.72,-38.09 -155.09,-56.08 -232.57,-90.08 -77.22,-33.88 -168.55,-74.52 -246.47,-103.09l-479.97 -192.26c-92.94,138.79 -218.2,233.71 -295.77,349.55z"/>
  </g>
 </g>
</svg>
